{"title":"Tezz 2012 Hindi Dvdrip 720p x264 ...Hon3y","uid":7557958,"size":1555163899,"categoryP":"video","categoryS":"hd___movies","magnet":"?xt=urn:btih:c875df5b7fcda7d677107cf4af95fd59c37476ed&amp;dn=Tezz+2012+Hindi+Dvdrip+720p+x264+...Hon3y&amp;tr=udp%3A%2F%2Ftracker.openbittorrent.com%3A80&amp;tr=udp%3A%2F%2Fopen.demonii.com%3A1337&amp;tr=udp%3A%2F%2Ftracker.coppersurfer.tk%3A6969&amp;tr=udp%3A%2F%2Fexodus.desync.com%3A6969","seeders":0,"leechers":0,"uploader":"honey8ee","files":10,"time":1345667556,"description":" &lt;a href=&quot;http://www.imdb.com/title/tt1706317/&quot; rel=&quot;nofollow&quot; target=&quot;_NEW&quot;&gt;http://www.imdb.com/title/tt1706317/&lt;/a&gt;\n\nCover: &lt;a href=&quot;\nhttp://www.shotpix.com/images/02554922342608796214.jpg&quot; rel=&quot;nofollow&quot; target=&quot;_NEW&quot;&gt;\nhttp://www.shotpix.com/images/02554922342608796214.jpg&lt;/a&gt;\n\nFormat : MKV\nFormat/Info : Advanced Video Codec\nFormat profile : &lt;a class=&quot;__cf_email__&quot; href=&quot;/cdn-cgi/l/email-protection&quot; data-cfemail=&quot;4d05242a250d017e637c&quot;&gt;[email&amp;#160;protected]&lt;/a&gt;&lt;script data-cfhash='f9e31' type=&quot;text/javascript&quot;&gt;\n/* &lt;![CDATA[ */!function(){try{var t=&quot;currentScript&quot;in document?document.currentScript:function(){for(var t=document.getElementsByTagName(&quot;script&quot;),e=t.length;e--;)if(t[e].getAttribute(&quot;data-cfhash&quot;))return t[e]}();if(t&amp;&amp;t.previousSibling){var e,r,n,i,c=t.previousSibling,a=c.getAttribute(&quot;data-cfemail&quot;);if(a){for(e=&quot;&quot;,r=parseInt(a.substr(0,2),16),n=2;a.length-n;n+=2)i=parseInt(a.substr(n,2),16)^r,e+=String.fromCharCode(i);e=document.createTextNode(e),c.parentNode.replaceChild(e,c)}t.parentNode.removeChild(t);}}catch(u){}}()/* ]]&gt; */&lt;/script&gt;\nFormat settings, CABAC : Yes\nFormat settings, ReFrames : 5 frames\nCodec ID : V_MPEG4/ISO/AVC\nDuration : 2h 1mn\nBit rate : 1 500 Kbps\nWidth : 1 280 pixels\nHeight : 544 pixels\nDisplay aspect ratio : 2.35:1\nFrame rate mode : Constant\nFrame rate : 23.976 fps\nColor space : YUV\nChroma subsampling : 4:2:0\nBit depth : 8 bits\nScan type : Progressive\nBits/(Pixel*Frame) : 0.090\nStream size : 1.25 GiB (87%)\n\n\nAudio\nID : 2\nFormat : AC-3\nFormat/Info : Audio Coding 3\nMode extension : CM (complete main)\nFormat settings, Endianness : Big\nCodec ID : A_AC3\nDuration : 2h 1mn\nBit rate mode : Constant\nBit rate : 192 Kbps\nChannel(s) : 6 channels\nChannel positions : Front: L C R, Side: L R, LFE\nSampling rate : 48.0 KHz\nBit depth : 16 bits\nCompression mode : Lossy\nStream size : 167 MiB (11%)\nLanguage : Hindi\nSub : English\n &lt;a href=&quot;\nhttp://www.shotpix.com/images/06057732974649671783.png&quot; rel=&quot;nofollow&quot; target=&quot;_NEW&quot;&gt;\nhttp://www.shotpix.com/images/06057732974649671783.png&lt;/a&gt;\n &lt;a href=&quot;\nhttp://www.shotpix.com/images/86328750432019370865.png&quot; rel=&quot;nofollow&quot; target=&quot;_NEW&quot;&gt;\nhttp://www.shotpix.com/images/86328750432019370865.png&lt;/a&gt;\n &lt;a href=&quot;\nhttp://www.shotpix.com/images/02190310374573204660.png&quot; rel=&quot;nofollow&quot; target=&quot;_NEW&quot;&gt;\nhttp://www.shotpix.com/images/02190310374573204660.png&lt;/a&gt;\n &lt;a href=&quot;\nhttp://www.shotpix.com/images/69258531167782808609.png&quot; rel=&quot;nofollow&quot; target=&quot;_NEW&quot;&gt;\nhttp://www.shotpix.com/images/69258531167782808609.png&lt;/a&gt;\n &lt;a href=&quot;\nhttp://www.shotpix.com/images/17626264381844470651.png&quot; rel=&quot;nofollow&quot; target=&quot;_NEW&quot;&gt;\nhttp://www.shotpix.com/images/17626264381844470651.png&lt;/a&gt;\n &lt;a href=&quot;\nhttp://www.shotpix.com/images/40960884950178957566.png&quot; rel=&quot;nofollow&quot; target=&quot;_NEW&quot;&gt;\nhttp://www.shotpix.com/images/40960884950178957566.png&lt;/a&gt;","torrent":{"xt":"urn:btih:c875df5b7fcda7d677107cf4af95fd59c37476ed","amp;dn":"Tezz+2012+Hindi+Dvdrip+720p+x264+...Hon3y","amp;tr":["udp%3A%2F%2Ftracker.openbittorrent.com%3A80","udp%3A%2F%2Fopen.demonii.com%3A1337","udp%3A%2F%2Ftracker.coppersurfer.tk%3A6969","udp%3A%2F%2Fexodus.desync.com%3A6969"],"infoHash":"c875df5b7fcda7d677107cf4af95fd59c37476ed","infoHashBuffer":{"type":"Buffer","data":[200,117,223,91,127,205,167,214,119,16,124,244,175,149,253,89,195,116,118,237]},"announce":[],"urlList":[]}}